<svg width="64" height="64" viewBox="0 0 64 64" fill="none" xmlns="http://www.w3.org/2000/svg">
<rect width="64" height="64" rx="10" fill="#FEEFEA"/>
<path d="M41.3333 21.3333H39.8667C39.5572 19.8286 38.7384 18.4765 37.5483 17.505C36.3582 16.5335 34.8696 16.0019 33.3333 16H30.6667C29.1304 16.0019 27.6418 16.5335 26.4517 17.505C25.2616 18.4765 24.4428 19.8286 24.1333 21.3333H22.6667C20.8992 21.3355 19.2047 22.0385 17.955 23.2883C16.7052 24.5381 16.0021 26.2325 16 28V41.3333C16.0021 43.1008 16.7052 44.7953 17.955 46.045C19.2047 47.2948 20.8992 47.9979 22.6667 48H41.3333C43.1008 47.9979 44.7953 47.2948 46.045 46.045C47.2948 44.7953 47.9979 43.1008 48 41.3333V28C47.9979 26.2325 47.2948 24.5381 46.045 23.2883C44.7953 22.0385 43.1008 21.3355 41.3333 21.3333ZM30.6667 18.6667H33.3333C34.1577 18.6701 34.9608 18.9281 35.6329 19.4055C36.305 19.8828 36.8132 20.5561 37.088 21.3333H26.912C27.1868 20.5561 27.695 19.8828 28.3671 19.4055C29.0392 18.9281 29.8423 18.6701 30.6667 18.6667ZM22.6667 24H41.3333C42.3942 24 43.4116 24.4214 44.1618 25.1716C44.9119 25.9217 45.3333 26.9391 45.3333 28V32H18.6667V28C18.6667 26.9391 19.0881 25.9217 19.8382 25.1716C20.5884 24.4214 21.6058 24 22.6667 24ZM41.3333 45.3333H22.6667C21.6058 45.3333 20.5884 44.9119 19.8382 44.1618C19.0881 43.4116 18.6667 42.3942 18.6667 41.3333V34.6667H30.6667V36C30.6667 36.3536 30.8071 36.6928 31.0572 36.9428C31.3072 37.1929 31.6464 37.3333 32 37.3333C32.3536 37.3333 32.6928 37.1929 32.9428 36.9428C33.1929 36.6928 33.3333 36.3536 33.3333 36V34.6667H45.3333V41.3333C45.3333 42.3942 44.9119 43.4116 44.1618 44.1618C43.4116 44.9119 42.3942 45.3333 41.3333 45.3333Z" fill="#E98509"/>
</svg>
