<svg width="64" height="64" viewBox="0 0 64 64" fill="none" xmlns="http://www.w3.org/2000/svg">
<rect width="64" height="64" rx="10" fill="#E7F0FF"/>
<path d="M44.9621 44.0025L42.2962 36.0075H33.3372C32.9836 36.0075 32.6446 35.8671 32.3946 35.6172C32.1446 35.3673 32.0042 35.0284 32.0042 34.675V33.3425H41.3351V30.6775H32.0042V26.4908C33.2607 26.1664 34.3558 25.3951 35.0842 24.3214C35.8125 23.2477 36.1242 21.9454 35.9606 20.6584C35.7971 19.3715 35.1697 18.1883 34.1959 17.3307C33.2222 16.4731 31.9689 16 30.6712 16C29.3734 16 28.1202 16.4731 27.1465 17.3307C26.1727 18.1883 25.5453 19.3715 25.3817 20.6584C25.2182 21.9454 25.5298 23.2477 26.2582 24.3214C26.9866 25.3951 28.0816 26.1664 29.3382 26.4908V34.675C29.3382 35.7352 29.7595 36.752 30.5095 37.5017C31.2594 38.2513 32.2766 38.6725 33.3372 38.6725H34.5502C34.296 40.1758 33.6171 41.5751 32.5935 42.7054C31.5699 43.8358 30.2444 44.65 28.7732 45.052C27.302 45.4541 25.7465 45.4272 24.29 44.9746C22.8335 44.5221 21.5369 43.6626 20.553 42.4976C19.5691 41.3327 18.9389 39.9108 18.7368 38.3996C18.5346 36.8884 18.769 35.3509 19.4121 33.9685C20.0553 32.586 21.0805 31.4162 22.3669 30.5971C23.6532 29.7779 25.147 29.3434 26.6722 29.345V26.68C24.6196 26.6784 22.6102 27.269 20.8851 28.3809C19.16 29.4928 17.7926 31.0787 16.947 32.9484C16.1014 34.818 15.8135 36.8919 16.1179 38.921C16.4224 40.9502 17.3062 42.8484 18.6632 44.3878C20.0203 45.9272 21.7929 47.0424 23.7684 47.5995C25.7439 48.1567 27.8383 48.132 29.8001 47.5286C31.7619 46.9251 33.5078 45.7685 34.8283 44.1976C36.1487 42.6267 36.9876 40.7082 37.2441 38.6725H40.374L43.04 46.6675H48V44.0025H44.9621ZM28.0052 21.35C28.0052 20.8229 28.1616 20.3076 28.4545 19.8694C28.7475 19.4311 29.1638 19.0895 29.651 18.8878C30.1381 18.6861 30.6741 18.6333 31.1913 18.7362C31.7084 18.839 32.1835 19.0928 32.5563 19.4655C32.9292 19.8382 33.1831 20.3131 33.2859 20.8301C33.3888 21.347 33.336 21.8829 33.1342 22.3698C32.9324 22.8568 32.5907 23.273 32.1523 23.5658C31.7139 23.8587 31.1985 24.015 30.6712 24.015C29.9641 24.015 29.286 23.7342 28.7861 23.2344C28.2861 22.7346 28.0052 22.0568 28.0052 21.35Z" fill="#0C4BA0"/>
</svg>
