<svg width="64" height="64" viewBox="0 0 64 64" fill="none" xmlns="http://www.w3.org/2000/svg">
<rect width="64" height="64" rx="10" fill="#DAEFD5"/>
<g clip-path="url(#clip0_430_1108)">
<path d="M28 32C29.5822 32 31.129 31.5308 32.4446 30.6518C33.7602 29.7727 34.7855 28.5233 35.391 27.0615C35.9965 25.5997 36.155 23.9911 35.8463 22.4393C35.5376 20.8874 34.7757 19.462 33.6569 18.3431C32.538 17.2243 31.1126 16.4624 29.5607 16.1537C28.0089 15.845 26.4003 16.0035 24.9385 16.609C23.4767 17.2145 22.2273 18.2398 21.3482 19.5554C20.4692 20.871 20 22.4178 20 24C20.0021 26.1211 20.8457 28.1547 22.3455 29.6545C23.8453 31.1544 25.8789 31.9979 28 32ZM28 18.6667C29.0548 18.6667 30.086 18.9795 30.963 19.5655C31.8401 20.1515 32.5237 20.9845 32.9274 21.959C33.331 22.9336 33.4366 24.0059 33.2309 25.0405C33.0251 26.0751 32.5171 27.0254 31.7712 27.7712C31.0254 28.5171 30.075 29.0251 29.0405 29.2309C28.0059 29.4366 26.9336 29.331 25.959 28.9274C24.9845 28.5237 24.1515 27.8401 23.5655 26.963C22.9795 26.086 22.6667 25.0548 22.6667 24C22.6667 22.5855 23.2286 21.229 24.2288 20.2288C25.229 19.2286 26.5855 18.6667 28 18.6667Z" fill="#319B17"/>
<path d="M28 34.666C24.8186 34.6699 21.7686 35.9354 19.519 38.185C17.2694 40.4346 16.0039 43.4846 16 46.666C16 47.0196 16.1405 47.3587 16.3905 47.6088C16.6406 47.8588 16.9797 47.9993 17.3333 47.9993C17.687 47.9993 18.0261 47.8588 18.2761 47.6088C18.5262 47.3587 18.6667 47.0196 18.6667 46.666C18.6667 44.1906 19.65 41.8167 21.4003 40.0663C23.1507 38.316 25.5246 37.3327 28 37.3327C30.4754 37.3327 32.8493 38.316 34.5997 40.0663C36.35 41.8167 37.3333 44.1906 37.3333 46.666C37.3333 47.0196 37.4738 47.3587 37.7239 47.6088C37.9739 47.8588 38.313 47.9993 38.6667 47.9993C39.0203 47.9993 39.3594 47.8588 39.6095 47.6088C39.8595 47.3587 40 47.0196 40 46.666C39.9961 43.4846 38.7306 40.4346 36.481 38.185C34.2314 35.9354 31.1814 34.6699 28 34.666Z" fill="#319B17"/>
<path d="M45.3332 26.5C44.5911 26.537 43.894 26.8664 43.3942 27.4161C42.8944 27.9658 42.6328 28.6911 42.6665 29.4333C42.7002 28.6911 42.4386 27.9658 41.9388 27.4161C41.439 26.8664 40.7419 26.537 39.9998 26.5C39.2578 26.537 38.5606 26.8664 38.0609 27.4161C37.5611 27.9658 37.2995 28.6911 37.3332 29.4333C37.3332 31.74 40.3412 34.4427 41.8398 35.6453C42.0744 35.8332 42.366 35.9355 42.6665 35.9355C42.967 35.9355 43.2586 35.8332 43.4932 35.6453C44.9918 34.4453 47.9998 31.74 47.9998 29.4333C48.0335 28.6911 47.7719 27.9658 47.2721 27.4161C46.7724 26.8664 46.0752 26.537 45.3332 26.5Z" fill="#319B17"/>
</g>
<defs>
<clipPath id="clip0_430_1108">
<rect width="32" height="32" fill="white" transform="translate(16 16)"/>
</clipPath>
</defs>
</svg>
