<svg xmlns="http://www.w3.org/2000/svg" data-name="Layer 1" viewBox="0 0 599.994 359.013">
  <path fill="#d9222a" d="M599.994 179.513c0 99.133-80.351 179.5-179.48 179.5-99.12 0-179.48-80.361-179.48-179.5 0-99.142 80.358-179.51 179.48-179.51 99.133 0 179.48 80.367 179.48 179.51"/>
  <path fill="#0097d0" d="M281.864 293.493a178.153 178.153 0 0 1-13.675-19.01H331.8a178.66 178.66 0 0 0 10.343-19.013h-84.292a178.38 178.38 0 0 1-7.597-19h99.477a180.788 180.788 0 0 0 5.201-94.975h-109.86a178.277 178.277 0 0 1 5.209-19.008h99.44a181.506 181.506 0 0 0-7.592-19.004h-84.254a181.062 181.062 0 0 1 10.337-19.009h63.571a181.41 181.41 0 0 0-13.671-18.991h-36.224a181.041 181.041 0 0 1 18.112-19A178.833 178.833 0 0 0 179.48 0C80.354.001 0 80.368 0 179.51a179.472 179.472 0 0 0 318.143 113.988h-36.267"/>
  <path d="M576.064 279.543a5.8 5.8 0 1 1 0 .001Zm5.801 4.408a4.401 4.401 0 0 0 4.403-4.397v-.011a4.396 4.396 0 0 0-4.395-4.396h-.009a4.4 4.4 0 0 0-4.409 4.391v.005a4.406 4.406 0 0 0 4.404 4.408Zm-.788-1.862h-1.184v-5.092h2.149a2.31 2.31 0 0 1 1.3.258 1.535 1.535 0 0 1 .646 1.271 1.387 1.387 0 0 1-.88 1.315l.934 2.246h-1.315l-.775-2.009h-.875v2.011Zm0-2.879h.658a1.512 1.512 0 0 0 .726-.102.716.716 0 0 0 .301-.592.656.656 0 0 0-.288-.513 1.6 1.6 0 0 0-.763-.101h-.634v1.308Zm-283.64-51.205a87.232 87.232 0 0 1-22.93 3.01c-25.017-.024-38.046-11.418-38.046-33.201 0-25.458 16.587-44.183 39.101-44.183 18.417 0 30.175 10.5 30.175 26.946 0 5.458-.796 10.771-2.745 18.296h-44.488c-1.583 10.633 6.188 15.306 19.413 15.306a59.422 59.422 0 0 0 23.024-4.613Zm-11.963-44.151c0-1.607 2.476-13.033-10.399-13.283-7.108 0-12.208 4.725-14.271 13.283h24.67Zm27.034-4.99c0 9.404 5.296 15.9 17.329 20.736 9.199 3.771 10.649 4.859 10.649 8.222 0 4.663-4.066 6.805-13.092 6.745a74.454 74.454 0 0 1-20.263-2.896l-3.229 17.154c6.487 1.504 15.588 2 23.649 2.188 24.024 0 35.116-7.867 35.116-24.867 0-10.217-4.625-16.233-16.033-20.713-9.537-3.809-10.657-4.638-10.657-8.083 0-4.05 3.778-6.1 11.148-6.1a148.484 148.484 0 0 1 16.38 1.108l3.259-17.242a175.492 175.492 0 0 0-20.075-1.483c-25.448.001-34.256 11.46-34.181 25.231m-88.242 50.92h-18.662l.445-7.82c-5.691 6.17-13.271 9.041-23.558 9.041-12.175 0-20.517-8.324-20.517-20.295 0-18.195 14.5-28.691 39.429-28.691a86.897 86.897 0 0 1 9.167.562 16.08 16.08 0 0 0 .879-4.808c0-4.979-3.921-6.813-14.412-6.813a86.12 86.12 0 0 0-23.796 3.313l3.188-16.7c11.195-2.846 18.529-3.941 26.825-3.941 19.304 0 29.499 7.566 29.499 21.796.167 3.795-1.158 11.413-1.82 14.746-.759 4.852-6.109 32.973-6.667 39.61Zm-16.379-33.191a42.6 42.6 0 0 0-5.013-.312c-12.729 0-19.183 3.787-19.183 11.267 0 4.692 3.149 7.634 8.058 7.634 9.147-.001 15.75-7.652 16.138-18.589Zm194.11 32.011a57.982 57.982 0 0 1-16.059 2.408c-11.435 0-17.676-5.842-17.676-16.25-.357-2.857 2.435-16.059 3.066-19.736.634-3.691 10.538-57.492 10.538-57.492h22.212l-3.362 17.8h11.393l-3.097 18.171h-11.44s-6.279 31.529-6.279 33.934c0 3.824 2.316 5.487 7.633 5.487a21.37 21.37 0 0 0 6.029-.692l-2.958 16.37m99.246-74.974c-16.279 0-29 6.7-36.388 17.892l6.412-16.596c-11.816-4.337-19.435 1.85-26.325 10.65 0 0-1.154 1.462-2.3 2.8v-13.05h-20.858c-2.825 23.029-7.82 46.379-11.729 69.446l-.941 5.021h22.438c2.125-11.708 3.875-21.213 5.617-28.788 4.768-20.787 12.787-27.141 24.829-24.333a48.466 48.466 0 0 0-4.305 20.554c0 18.58 10.092 33.789 35.149 33.789 25.287 0 43.597-13.51 43.597-44.31 0-18.579-12.201-33.075-35.196-33.075Zm-6.529 59.316c-7.926.125-12.729-6.524-12.729-16.471 0-11.791 7.013-25.112 18.274-25.112 9.087 0 12.199 7.204 12.199 14.879.001 16.78-6.874 26.704-17.744 26.704Zm-343.19 16.847h-22.342l13.279-69.954-30.571 69.954H91.524l-3.726-69.55-13.32 69.55H54.207l17.267-90.996h34.913l2.912 50.726 22.117-50.726h37.721l-17.613 90.996"/>
  <path fill="#fff" d="M538.144 218.383a5.797 5.797 0 1 1 5.906 5.904h-.002a5.795 5.795 0 0 1-5.904-5.684q-.002-.11 0-.22Zm5.796 4.413a4.407 4.407 0 1 0 0-8.815 4.405 4.405 0 0 0-4.408 4.402 4.414 4.414 0 0 0 4.408 4.413Zm-.784-1.866h-1.188v-5.084h2.15a2.348 2.348 0 0 1 1.304.25 1.545 1.545 0 0 1 .646 1.271 1.386 1.386 0 0 1-.883 1.316l.934 2.246h-1.316l-.771-2.01h-.875v2.011h-.001Zm0-2.888h.658a1.562 1.562 0 0 0 .725-.097.702.702 0 0 0 .296-.588.633.633 0 0 0-.283-.512 1.539 1.539 0 0 0-.763-.097h-.633v1.294Zm-240.11 4.354a87.16 87.16 0 0 1-22.925 3.012c-25.017-.025-38.046-11.42-38.046-33.208 0-25.45 16.579-44.179 39.096-44.179 18.421 0 30.175 10.496 30.175 26.942 0 5.467-.8 10.771-2.74 18.301h-44.487c-1.584 10.629 6.179 15.308 19.408 15.308a59.387 59.387 0 0 0 23.028-4.616l-3.509 18.44Zm-11.963-44.15c0-1.604 2.472-13.033-10.398-13.279-7.108 0-12.204 4.729-14.271 13.279Zm27.038-4.996c0 9.408 5.287 15.9 17.325 20.746 9.204 3.768 10.648 4.857 10.648 8.213 0 4.666-4.065 6.809-13.087 6.75a74.362 74.362 0 0 1-20.263-2.896l-3.237 17.146c6.491 1.516 15.597 2.012 23.653 2.199 24.025 0 35.121-7.871 35.121-24.871 0-10.217-4.629-16.236-16.041-20.712-9.538-3.809-10.654-4.638-10.654-8.083 0-4.05 3.783-6.1 11.146-6.1a148.421 148.421 0 0 1 16.388 1.113l3.25-17.246a175.425 175.425 0 0 0-20.065-1.483c-25.459-.001-34.263 11.453-34.184 25.224m-88.242 50.93h-18.666l.45-7.82c-5.696 6.158-13.275 9.033-23.559 9.033-12.175 0-20.521-8.326-20.521-20.287 0-18.205 14.495-28.696 39.429-28.696a87.132 87.132 0 0 1 9.171.563 16.018 16.018 0 0 0 .875-4.808c0-4.983-3.917-6.813-14.408-6.813a86.273 86.273 0 0 0-23.796 3.313l3.184-16.696c11.199-2.85 18.529-3.946 26.829-3.946 19.304 0 29.495 7.567 29.495 21.792.167 3.8-1.158 11.413-1.816 14.754-.763 4.848-6.112 32.968-6.667 39.611Zm-16.387-33.198a42.031 42.031 0 0 0-5.013-.312c-12.721 0-19.18 3.788-19.18 11.268 0 4.694 3.154 7.633 8.055 7.633 9.155-.001 15.758-7.654 16.138-18.589ZM407.602 223a58.1 58.1 0 0 1-16.055 2.408c-11.434 0-17.67-5.846-17.67-16.254-.362-2.854 2.434-16.059 3.062-19.737.634-3.692 10.537-57.492 10.537-57.492h22.21l-3.355 17.8h11.393l-3.097 18.171h-11.44s-6.283 31.53-6.283 33.933c0 3.825 2.32 5.479 7.633 5.479a21.143 21.143 0 0 0 6.03-.691L407.601 223m110.47-42.367c0 16.775-6.88 26.709-17.755 26.709-7.92.112-12.726-6.525-12.726-16.475 0-11.792 7.01-25.113 18.271-25.113 9.093 0 12.21 7.213 12.21 14.879Zm23.98.467c0-18.579-12.209-33.079-35.195-33.079-26.45 0-43.55 17.625-43.55 43.596 0 18.578 10.083 33.791 35.148 33.791 25.288 0 43.596-13.512 43.596-44.308Zm-114.66-31.383c-2.822 23.029-7.817 46.375-11.723 69.45l-.946 5.021h22.435c8.088-44.558 10.8-57.253 27.741-52.782l8.15-21.087c-11.816-4.337-19.426 1.854-26.31 10.658.621-3.962 1.792-7.783 1.51-11.258l-20.858-.002m-270.26 74.47h-22.338l13.275-69.958-30.575 69.958H97.131l-3.726-69.555-13.32 69.555H59.814l17.263-91h34.921l1.846 56.334 24.575-56.334h36.325l-17.613 91"/>
</svg>
